<svg xmlns="http://www.w3.org/2000/svg" id="Layer_1" width="86.4" height="86.4" data-name="Layer 1" viewBox="0 0 64 64"><path fill="#f07322" d="M59.1 47.3c-1.4 0-2.3-.1-2.9-1.3l-5.7-11.8a4 4 0 0 0-1.4-1.6c4-.9 7.8-4.6 7.8-11A11.6 11.6 0 0 0 45.3 9.7H28.2v3.6h3.7v25.9h4v-5.6h6.8c2.2 0 3 .3 4.1 2.5l5.8 11.8c1.3 2.7 2.3 3.1 5.6 3.1H60v-3.7zM44.9 29.9h-9V13.3h9c4.8 0 7.8 3.1 7.8 8.2s-3 8.4-7.8 8.4z"/><path fill="#f2aa1d" d="M35.9 43.3v4.1c0 2.3-.9 3.4-2.9 3.6H15.5C13 51 12 49.9 12 47.4V14.6a1.1 1.1 0 0 0-.9-1.3H8.3V9.7h4.2c2.5 0 3.5 1.1 3.5 3.6V46a1.1 1.1 0 0 0 .9 1.3h13.8a1.1 1.1 0 0 0 1.3-1.2v-2.8z"/></svg>