<svg xmlns="http://www.w3.org/2000/svg" id="Layer_1" width="3.6in" height="3.6in" data-name="Layer 1" viewBox="0 0 256 256"><path fill="#f07322" d="M223.9 182.1c-5.5 0-8.8-.5-11-5.5l-22.3-48.2a16.2 16.2 0 0 0-5.3-6.7v-.5c15.2-3.6 30-19 30-45.3 0-29.4-18.5-48.2-44.5-48.2h-65.7v15h14.3v106h15.4v-23h26c8.6 0 11.5 1.2 15.7 10.1l22.3 48.4c5.1 11.1 8.8 12.8 21.4 12.8h6.8v-14.9zm-54.7-71.3h-34.4V42.7h34.6c18.3 0 29.8 12.8 29.8 33.7s-11.4 34.4-30 34.4z"/><path fill="#f2aa1d" d="M134.8 165.6v16.9c0 9.5-3.3 13.9-11.2 14.6H56.3c-9.5 0-13.4-4.3-13.4-14.7V48.1c0-3.6-1.8-5.3-4.9-5.3h-9.5v-15h16.4c9.5 0 13.4 4.3 13.4 14.7v134.4c0 3.6 1.8 5.3 4.9 5.3h51.4c3 0 4.7-1.6 4.8-5v-11.6z"/></svg>