<svg xmlns="http://www.w3.org/2000/svg" id="Layer_1" width="19.2" height="19.2" data-name="Layer 1" viewBox="0 0 16 16"><path fill="#f07322" d="M14.7 11.9c-.4 0-.6 0-.8-.4l-1.5-3A1.1 1.1 0 0 0 12 8a2.8 2.8 0 0 0 2.1-2.9A2.9 2.9 0 0 0 11.4 2h-5v1h1v6.8h1.1V8.3h1.8a1 1 0 0 1 1.1.6L13 12c.4.7.6.8 1.5.8h.5v-1zm-3.8-4.6H8.5V3h2.4A2 2 0 0 1 13 5.1a2 2 0 0 1-1.8 2.2z"/><path fill="#f2aa1d" d="M8.5 10.8v1.1c0 .6-.2.9-.8.9H3c-.7 0-.9-.3-.9-.9V3.3a.3.3 0 0 0-.3-.3h-.7V2h1.1c.7 0 .9.3.9.9v8.6a.3.3 0 0 0 .3.3h3.7a.3.3 0 0 0 .3-.3v-.7z"/></svg>