<svg xmlns="http://www.w3.org/2000/svg" id="Layer_1" width="38.4" height="38.4" data-name="Layer 1" viewBox="0 0 32 32"><path fill="#f07322" d="M28.6 22.4c-.7 0-1.2-.1-1.4-.6l-2.9-5.4a1.9 1.9 0 0 0-.7-.8 4.9 4.9 0 0 0 3.9-5.1c0-3.3-2.4-5.4-5.8-5.4h-8.6v1.7H15v11.9h2v-2.6h3.4c1.1 0 1.5.1 2 1.1l2.9 5.4c.7 1.2 1.2 1.4 2.8 1.4h.9v-1.6zm-7.2-8H17V6.8h4.5a3.5 3.5 0 0 1 3.9 3.8 3.6 3.6 0 0 1-3.4 3.8h-.6z"/><path fill="#f2aa1d" d="M17 20.6v1.9c0 1.1-.4 1.6-1.5 1.6H6.7c-1.2 0-1.8-.5-1.8-1.6V7.4a.5.5 0 0 0-.6-.6H3.1V5.2h2.1c1.3 0 1.8.5 1.8 1.6v15a.5.5 0 0 0 .6.6h6.7a.5.5 0 0 0 .6-.6v-1.2z"/></svg>