<svg xmlns="http://www.w3.org/2000/svg" width="5in" height="5in" viewBox="0 0 360 360"><title>Artboard 1</title><g id="box"><rect x="22.6" y="21.4" width="312.6" height="318.53" rx="12" ry="12" fill="#fff" stroke="#f1aa1f" stroke-miterlimit="10" stroke-width="18"/></g><g id="dog_pawn" data-name="dog pawn"><circle cx="89" cy="151" r="31.7" fill="#eec572"/><circle cx="143.4" cy="100.9" r="31.7" fill="#eec572"/><circle cx="215.1" cy="99.5" r="31.7" fill="#eec572"/><circle cx="268.5" cy="149" r="31.7" fill="#eec572"/><path d="M89.7,245.6l1.3-2.2c3.9-5.9,9.1-10.9,13.8-16.2l15.7-17.9,21-24c7.6-8.7,13.8-18.1,25.4-21.7s24.7-1.8,33.2,5.4a31.9,31.9,0,0,1,3.3,3.4c19.1,21.7,39,43,57.1,65.5,9,11.1,12,29.7,5.5,42.7-4.2,8.4-12.8,13.7-21.4,16.8S222,297,211.9,296c-13.1-1.3-26.3-2.2-39.5-2.4-10.1-.2-20.7-.3-30.9.9s-20.6,5.9-30.7,3-17.3-10.7-21.5-19.3A36,36,0,0,1,89.7,245.6Z" fill="#eec572"/></g></svg>