<svg xmlns="http://www.w3.org/2000/svg"><symbol id="pawn" viewBox="0 0 64.1 64"><g data-name="dog pawn"><rect width="37.6" height="40.73" x="12.2" y="11.6" fill="#fff" stroke="#f1aa1f" stroke-miterlimit="10" stroke-width="2" rx="3.1" ry="3.1"/><ellipse cx="20" cy="28.2" fill="#eec572" rx="3.7" ry="4.1"/><ellipse cx="26.3" cy="21.8" fill="#eec572" rx="3.7" ry="4.1"/><ellipse cx="34.7" cy="21.6" fill="#eec572" rx="3.7" ry="4.1"/><ellipse cx="40.9" cy="27.9" fill="#eec572" rx="3.7" ry="4.1"/><path fill="#eec572" d="M20 40.3l.2-.3a19.7 19.7 0 0 1 1.6-2.1l1.8-2.3 2.4-3.1c.9-1.1 1.6-2.3 3-2.8a4.1 4.1 0 0 1 3.9.7l.4.4c2.2 2.8 4.6 5.5 6.7 8.4a5.9 5.9 0 0 1 .6 5.5 4.4 4.4 0 0 1-2.5 2.1c-1.1.4-2.6 0-3.8-.2l-4.6-.3a24.8 24.8 0 0 0-3.6.1c-1.2.1-2.4.7-3.6.4a4.5 4.5 0 0 1-2.5-2.3 5 5 0 0 1 0-4.2z"/></g></symbol><symbol id="heart" viewBox="0 0 64.1 64"><path fill="#ffc513" d="M31.9 53.5C25.3 46.7 19 40.4 13 33.8a15.1 15.1 0 0 1-4-12.5c1.5-9.7 12.7-14 20.8-8l2.1 1.7 1.7-1.3a13.3 13.3 0 0 1 16.1-1 12.6 12.6 0 0 1 4.5 15.4 29.5 29.5 0 0 1-5.5 8.7C43.6 42.4 38 47.6 31.9 53.5z" data-name="dog pawn"/></symbol></svg>