<svg xmlns="http://www.w3.org/2000/svg" width="0.9in" height="0.9in" viewBox="0 0 64.1 64"><title>icon</title><g id="dog_pawn" data-name="dog pawn"><rect x="12.2" y="11.6" width="37.6" height="40.73" rx="3.1" ry="3.1" fill="#fff" stroke="#f1aa1f" stroke-miterlimit="10" stroke-width="2"/><ellipse cx="20" cy="28.2" rx="3.7" ry="4.1" fill="#eec572"/><ellipse cx="26.3" cy="21.8" rx="3.7" ry="4.1" fill="#eec572"/><ellipse cx="34.7" cy="21.6" rx="3.7" ry="4.1" fill="#eec572"/><ellipse cx="40.9" cy="27.9" rx="3.7" ry="4.1" fill="#eec572"/><path d="M20,40.3l.2-.3a19.7,19.7,0,0,1,1.6-2.1l1.8-2.3,2.4-3.1c.9-1.1,1.6-2.3,3-2.8a4.1,4.1,0,0,1,3.9.7l.4.4c2.2,2.8,4.6,5.5,6.7,8.4a5.9,5.9,0,0,1,.6,5.5,4.4,4.4,0,0,1-2.5,2.1c-1.1.4-2.6,0-3.8-.2l-4.6-.3a24.8,24.8,0,0,0-3.6.1c-1.2.1-2.4.7-3.6.4A4.5,4.5,0,0,1,20,44.5,5,5,0,0,1,20,40.3Z" fill="#eec572"/></g></svg>