<svg xmlns="http://www.w3.org/2000/svg" width="2in" height="2in" viewBox="0 0 144 144"><title>icon</title><g id="dog_pawn" data-name="dog pawn"><rect x="21.5" y="17.5" width="97.8" height="109.1" rx="12" ry="12" fill="#fff" stroke="#f1aa1f" stroke-miterlimit="10" stroke-width="9"/><ellipse cx="42.3" cy="61.8" rx="9.9" ry="10.9" fill="#eec572"/><ellipse cx="59.3" cy="44.7" rx="9.9" ry="10.9" fill="#eec572"/><ellipse cx="81.7" cy="44.2" rx="9.9" ry="10.9" fill="#eec572"/><ellipse cx="98.4" cy="61.1" rx="9.9" ry="10.9" fill="#eec572"/><path d="M42.5,94.2l.4-.7a52.7,52.7,0,0,1,4.3-5.5l4.9-6.1,6.6-8.2c2.4-3,4.3-6.2,7.9-7.4s7.7-.6,10.4,1.9l1,1.2c6,7.4,12.2,14.7,17.9,22.4,2.8,3.8,3.8,10.2,1.7,14.6a11.7,11.7,0,0,1-6.7,5.7c-3.1,1.2-7-.1-10.2-.5s-8.2-.7-12.4-.8a66.4,66.4,0,0,0-9.7.3c-3.1.4-6.4,2-9.6,1s-5.4-3.7-6.7-6.6A13.4,13.4,0,0,1,42.5,94.2Z" fill="#eec572"/></g></svg>