<svg xmlns="http://www.w3.org/2000/svg"><symbol id="logo-1" viewBox="0 0 16 16"><path fill="#f07322" d="M14.7 11.9c-.4 0-.6 0-.8-.4l-1.5-3A1.1 1.1 0 0 0 12 8a2.8 2.8 0 0 0 2.1-2.9A2.9 2.9 0 0 0 11.4 2h-5v1h1v6.8h1.1V8.3h1.8a1 1 0 0 1 1.1.6L13 12c.4.7.6.8 1.5.8h.5v-1zm-3.8-4.6H8.5V3h2.4A2 2 0 0 1 13 5.1a2 2 0 0 1-1.8 2.2z"/><path fill="#f2aa1d" d="M8.5 10.8v1.1c0 .6-.2.9-.8.9H3c-.7 0-.9-.3-.9-.9V3.3a.3.3 0 0 0-.3-.3h-.7V2h1.1c.7 0 .9.3.9.9v8.6a.3.3 0 0 0 .3.3h3.7a.3.3 0 0 0 .3-.3v-.7z"/></symbol><symbol id="logo-2" viewBox="0 0 32 32"><path fill="#f07322" d="M28.6 22.4c-.7 0-1.2-.1-1.4-.6l-2.9-5.4a1.9 1.9 0 0 0-.7-.8 4.9 4.9 0 0 0 3.9-5.1c0-3.3-2.4-5.4-5.8-5.4h-8.6v1.7H15v11.9h2v-2.6h3.4c1.1 0 1.5.1 2 1.1l2.9 5.4c.7 1.2 1.2 1.4 2.8 1.4h.9v-1.6zm-7.2-8H17V6.8h4.5a3.5 3.5 0 0 1 3.9 3.8 3.6 3.6 0 0 1-3.4 3.8h-.6z"/><path fill="#f2aa1d" d="M17 20.6v1.9c0 1.1-.4 1.6-1.5 1.6H6.7c-1.2 0-1.8-.5-1.8-1.6V7.4a.5.5 0 0 0-.6-.6H3.1V5.2h2.1c1.3 0 1.8.5 1.8 1.6v15a.5.5 0 0 0 .6.6h6.7a.5.5 0 0 0 .6-.6v-1.2z"/></symbol><symbol id="logo-3" viewBox="0 0 64 64"><path fill="#f07322" d="M59.1 47.3c-1.4 0-2.3-.1-2.9-1.3l-5.7-11.8a4 4 0 0 0-1.4-1.6c4-.9 7.8-4.6 7.8-11A11.6 11.6 0 0 0 45.3 9.7H28.2v3.6h3.7v25.9h4v-5.6h6.8c2.2 0 3 .3 4.1 2.5l5.8 11.8c1.3 2.7 2.3 3.1 5.6 3.1H60v-3.7zM44.9 29.9h-9V13.3h9c4.8 0 7.8 3.1 7.8 8.2s-3 8.4-7.8 8.4z"/><path fill="#f2aa1d" d="M35.9 43.3v4.1c0 2.3-.9 3.4-2.9 3.6H15.5C13 51 12 49.9 12 47.4V14.6a1.1 1.1 0 0 0-.9-1.3H8.3V9.7h4.2c2.5 0 3.5 1.1 3.5 3.6V46a1.1 1.1 0 0 0 .9 1.3h13.8a1.1 1.1 0 0 0 1.3-1.2v-2.8z"/></symbol><symbol id="logo-4" viewBox="0 0 256 256"><path fill="#f07322" d="M223.9 182.1c-5.5 0-8.8-.5-11-5.5l-22.3-48.2a16.2 16.2 0 0 0-5.3-6.7v-.5c15.2-3.6 30-19 30-45.3 0-29.4-18.5-48.2-44.5-48.2h-65.7v15h14.3v106h15.4v-23h26c8.6 0 11.5 1.2 15.7 10.1l22.3 48.4c5.1 11.1 8.8 12.8 21.4 12.8h6.8v-14.9zm-54.7-71.3h-34.4V42.7h34.6c18.3 0 29.8 12.8 29.8 33.7s-11.4 34.4-30 34.4z"/><path fill="#f2aa1d" d="M134.8 165.6v16.9c0 9.5-3.3 13.9-11.2 14.6H56.3c-9.5 0-13.4-4.3-13.4-14.7V48.1c0-3.6-1.8-5.3-4.9-5.3h-9.5v-15h16.4c9.5 0 13.4 4.3 13.4 14.7v134.4c0 3.6 1.8 5.3 4.9 5.3h51.4c3 0 4.7-1.6 4.8-5v-11.6z"/></symbol></svg>