<svg xmlns="http://www.w3.org/2000/svg" width="256" height="256" data-name="Layer 1" viewBox="0 0 256 256"><path fill="#f07322" d="M223.9 182.1c-5.5 0-8.8-.5-11-5.5l-22.3-48.2a16.2 16.2 0 0 0-5.3-6.7v-.5c15.2-3.6 30-19 30-45.3 0-29.4-18.5-48.2-44.5-48.2h-65.7v15h14.3v106h15.4v-23h26c8.6 0 11.5 1.2 15.7 10.1l22.3 48.4c5.1 11.1 8.8 12.8 21.4 12.8h6.8v-14.9zm-54.7-71.3h-34.4V42.7h34.6c18.3 0 29.8 12.8 29.8 33.7s-11.4 34.4-30 34.4z"/><path fill="#fff" d="M119.4 165.6v11.6-11.6z"/><path fill="#f2aa1d" d="M134.8 165.6v16.9c0 9.5-3.3 13.9-11.2 14.6H56.3c-9.5 0-13.4-4.3-13.4-14.7V48.1c0-3.6-1.8-5.3-4.9-5.3h-9.5v-15h16.4c9.5 0 13.4 4.3 13.4 14.7v134.4c0 3.6 1.8 5.3 4.9 5.3h51.4c3 0 4.7-1.6 4.8-5v-11.6z"/><path fill="#302740" d="M75.2 217.5h1.5v-10.4h-1.5v-1.6H80v1.6h-1.5v10.4h4.3v-2.2h1.5v3.7h-9.1zm15.1-8.4a5.1 5.1 0 1 1-4.8 5 4.8 4.8 0 0 1 4.8-5zm0 8.5a3.5 3.5 0 0 0 0-6.9 3.5 3.5 0 0 0 0 6.9z"/><path fill="#302740" d="M98.1 221.5a1.8 1.8 0 0 0 1.6-1.3l.4-1-3.1-8.4h-1.2v-1.4h4v1.4h-1.1l2 5.8a4.8 4.8 0 0 1 .2.8h.1a6.3 6.3 0 0 1 .2-.8l2-5.8h-1.1v-1.4h3.9v1.4h-1.1l-3.5 9.8a3.2 3.2 0 0 1-5 1.9l.6-1.4a2 2 0 0 0 1.1.4zm13.7-8.4h.6v-.4c0-1.5-.8-2.1-1.9-2.1a4.5 4.5 0 0 0-2.5.9l-.7-1.3a5.4 5.4 0 0 1 3.4-1.1c2.3 0 3.5 1.3 3.5 3.7v4.3c0 .3.1.4.4.4h.9v1.5h-1.8a1 1 0 0 1-1.1-1.1 2.5 2.5 0 0 1 .1-.6 3.3 3.3 0 0 1-2.9 2 2.8 2.8 0 0 1-2.9-2.9c-.3-3.1 3.4-3.3 4.9-3.3zm-1.9 4.7c1.5 0 2.4-1.7 2.4-3.1v-.4h-.4c-.8 0-3.6 0-3.6 1.9a1.6 1.6 0 0 0 1.6 1.6zm7.2-10.8h-1.5v-1.4h3.2v10.6c0 .8.2 1.4.9 1.4h.5v1.5h-.8c-1.3 0-2.3-.6-2.3-2.8zm9 10.5h1.5V207h-1.5v-1.5h5.4a6.5 6.5 0 0 1 2.3.3 3.4 3.4 0 0 1 2.2 3.5 3.6 3.6 0 0 1-2.6 3.8 1.6 1.6 0 0 1 .5.6l1.8 3.3c.2.4.4.4.9.4h.4v1.6h-1.1c-1.1 0-1.3-.2-1.7-1l-1.9-3.7a1.2 1.2 0 0 0-1.3-.7h-1.5v4h1.5v1.4h-4.8zm5.8-5.5a2.2 2.2 0 0 0 2.2-2.5 2.1 2.1 0 0 0-1.2-2.1 4 4 0 0 0-1.5-.2h-2v4.8zm10.5-2.9c2.5 0 3.8 2 3.8 4.5 0 .2-.1.7-.1.7h-6.5a3.1 3.1 0 0 0 3.1 3.3 4.1 4.1 0 0 0 2.6-1.1l.7 1.4a5.2 5.2 0 0 1-3.5 1.3c-2.8 0-4.7-2.2-4.7-5.1s2.1-5 4.6-5zm2.1 4.1c-.1-1.7-1-2.6-2.1-2.6a2.7 2.7 0 0 0-2.6 2.6zm3.2 2.7h1.5v.6c0 .8 1.1 1.2 2 1.2s1.8-.4 1.8-1.2-1-1.3-2.2-1.8-2.8-1.2-2.8-2.9 1.7-2.7 3.3-2.7 3.1.5 3.1 2v1.2h-1.5v-.6c0-.6-.7-1-1.6-1s-1.6.4-1.6 1.2 1 1.3 2 1.7 2.9 1.1 2.9 2.9-1.5 2.8-3.6 2.8-3.5-.8-3.5-2.3zm13.1-6.8c1.3 0 3.5.5 3.5 2.2v1.2h-1.5v-.7c0-.7-1.1-1.1-1.9-1.1s-3 1.4-3 3.4a3.2 3.2 0 0 0 3.1 3.5 4.3 4.3 0 0 0 2.8-1.2l.6 1.4a5.2 5.2 0 0 1-3.6 1.5 5.1 5.1 0 0 1-.1-10.1zm6.1 1.7h-1.5v-1.4h3.2v5.8c0 1.3.2 2.4 1.7 2.4s2.9-1.9 2.9-3.8v-3h-1.5v-1.4h3.2v7.8a.4.4 0 0 0 .4.4h.9v1.4h-1.8c-.8 0-1.1-.4-1.1-1.1v-.4a4.5 4.5 0 0 1 0-.6 3.6 3.6 0 0 1-3.4 2.3c-1.9 0-2.9-1.1-2.9-3.7zm14.9-1.7c2.5 0 3.8 2 3.8 4.5 0 .2-.1.7-.1.7H179a3.1 3.1 0 0 0 3.1 3.3 4.1 4.1 0 0 0 2.6-1.1l.7 1.4a5.2 5.2 0 0 1-3.5 1.3c-2.8 0-4.7-2.2-4.7-5.1s2.1-5 4.6-5zm2.1 4.1c-.1-1.7-1-2.6-2.1-2.6a2.7 2.7 0 0 0-2.6 2.6z"/></svg>