<svg xmlns="http://www.w3.org/2000/svg" id="Layer_1" width="16" height="16" data-name="Layer 1" viewBox="0 0 16 16"><path fill="#f07322" d="M14.7 11.9c-.4 0-.6 0-.8-.4l-1.5-3A1.1 1.1 0 0 0 12 8a2.8 2.8 0 0 0 2.1-2.9A2.9 2.9 0 0 0 11 2H6.4v1h1v6.8h1.1V8.3h1.8a1 1 0 0 1 1.1.6L13 12c.4.7.6.8 1.5.8h.5v-1zm-3.8-4.6H8.5V3h2.4A2 2 0 0 1 13 5.1a2 2 0 0 1-2.1 2.2z"/><path fill="#fff" d="M7.4 10.8v.7-.7z"/><path fill="#f2aa1d" d="M8.5 10.8v1.1c0 .6-.2.9-.8.9H3c-.7 0-.9-.3-.9-.9V3.3a.3.3 0 0 0-.4-.3h-.6V2h1.1c.7 0 .9.3.9.9v8.6a.3.3 0 0 0 .3.3h3.7a.3.3 0 0 0 .3-.3v-.7z"/><path fill="#302740" d="M4.3 14.2h.1v-.7h.1v.7H5v.2h-.7zm1.1-.6a.3.3 0 1 1-.3.3.3.3 0 0 1 .3-.3zm0 .5a.2.2 0 0 0 0-.4.2.2 0 0 0 0 .4zm.5.3H6l-.2-.5H6v.4-.4h.1l-.2.6-.2.2zm1-.5h-.1a.2.2 0 0 1 .2.2v.3h-.3a.2.2 0 0 1-.2-.2c0-.3.3-.3.4-.3zm-.1.3A.2.2 0 0 0 7 14c-.1 0-.2 0-.2.1zm.5-.7h.1v.7c-.1 0-.2 0-.2-.2zm.6.7H8v-.7h.4a.2.2 0 0 1 .1.2.2.2 0 0 1-.2.2v.2h.1V14h-.3v.3h-.2zm.4-.4a.1.1 0 0 0 .2-.2h-.4v.3zm.7-.2a.3.3 0 0 1 .3.3h-.5a.2.2 0 0 0 .2.2.3.3 0 0 1-.3-.3.3.3 0 0 1 .3-.2zm.1.3a.2.2 0 0 0-.1-.2l-.2.2zm.3.2h.2c-.1 0-.2-.1-.2-.2s.1-.2.2-.2.2.1.2.2-.1.2-.2.2h-.2zm.9-.5c.1 0 .2 0 .2.1h-.2a.2.2 0 0 0-.2.2.2.2 0 0 0 .2.2.3.3 0 1 1 0-.6zm.4.1h.1v.3c0 .1 0 .2.1.2a.2.2 0 0 0 .2-.2v-.2h.1v.5h-.3c-.1 0-.2-.1-.2-.2zm1.1-.1a.3.3 0 0 1 .3.3h-.5a.2.2 0 0 0 .2.2.3.3 0 0 1-.3-.3.3.3 0 0 1 .3-.2zm.1.3a.1.1 0 0 0-.1-.2l-.2.2z"/></svg>