<?xml version="1.0" encoding="utf-8"?>
<!-- Generator: Adobe Illustrator 21.0.2, SVG Export Plug-In . SVG Version: 6.00 Build 0)  -->
<!DOCTYPE svg PUBLIC "-//W3C//DTD SVG 1.1//EN" "http://www.w3.org/Graphics/SVG/1.1/DTD/svg11.dtd">
<svg version="1.1" id="Layer_1" xmlns="http://www.w3.org/2000/svg" xmlns:xlink="http://www.w3.org/1999/xlink" x="0px" y="0px"
	 viewBox="0 0 32 32" style="enable-background:new 0 0 32 32;" xml:space="preserve">
<style type="text/css">
	.st0{fill:#F07322;}
	.st1{fill:#FFFFFF;}
	.st2{fill:#F2AA1D;}
</style>
<path class="st0" d="M28.6,22.4c-0.7,0-1.2-0.1-1.4-0.6l-2.9-5.4c-0.2-0.3-0.4-0.6-0.7-0.8c2.4-0.5,4-2.7,3.9-5.1
	c0-3.3-2.4-5.4-5.8-5.4h-8.6v1.7H15v11.9h2v-2.6h3.4c1.1,0,1.5,0.1,2,1.1l2.9,5.4c0.7,1.2,1.2,1.4,2.8,1.4H29v-1.6H28.6z M21.4,14.4
	H17V6.8h4.5c1.9-0.2,3.7,1.1,3.9,3.1c0,0.2,0,0.5,0,0.7c0.1,2-1.4,3.7-3.4,3.8C21.8,14.4,21.7,14.4,21.4,14.4L21.4,14.4z"/>
<path class="st1" d="M15,20.6v1.3V20.6z"/>
<path class="st2" d="M17,20.6v1.9c0,1.1-0.4,1.6-1.5,1.6H6.7c-1.2,0-1.8-0.5-1.8-1.6V7.4c0-0.4-0.2-0.6-0.6-0.6H3.1V5.2h2.1
	C6.5,5.2,7,5.7,7,6.8v15c0,0.4,0.2,0.6,0.6,0.6h6.7c0.4,0,0.6-0.2,0.6-0.6v-1.2L17,20.6z"/>
</svg>
