<?xml version="1.0" encoding="utf-8"?>
<!-- Generator: Adobe Illustrator 21.0.2, SVG Export Plug-In . SVG Version: 6.00 Build 0)  -->
<!DOCTYPE svg PUBLIC "-//W3C//DTD SVG 1.1//EN" "http://www.w3.org/Graphics/SVG/1.1/DTD/svg11.dtd">
<svg version="1.1" id="Layer_1" xmlns="http://www.w3.org/2000/svg" xmlns:xlink="http://www.w3.org/1999/xlink" x="0px" y="0px"
	 viewBox="0 0 256 256" style="enable-background:new 0 0 256 256;" xml:space="preserve">
<style type="text/css">
	.st0{fill:#F07322;}
	.st1{fill:#FFFFFF;}
	.st2{fill:#F2AA1D;}
</style>
<path class="st0" d="M223.9,182.1c-5.5,0-8.8-0.5-11-5.5l-22.3-48.2c-1.1-2.7-3-5-5.3-6.7v-0.5c15.2-3.6,30-19,30-45.3
	c0-29.4-18.5-48.2-44.5-48.2h-65.7v15h14.3v106h15.4v-23h26c8.6,0,11.5,1.2,15.7,10.1l22.3,48.4c5.1,11.1,8.8,12.8,21.4,12.8h6.8
	v-14.9L223.9,182.1z M169.2,110.8h-34.4V42.7h34.6c18.3,0,29.8,12.8,29.8,33.7S187.8,110.8,169.2,110.8z"/>
<path class="st1" d="M119.4,165.6v11.6V165.6z"/>
<path class="st2" d="M134.8,165.6v16.9c0,9.5-3.3,13.9-11.2,14.6H56.3c-9.5,0-13.4-4.3-13.4-14.7V48.1c0-3.6-1.8-5.3-4.9-5.3h-9.5
	v-15h16.4c9.5,0,13.4,4.3,13.4,14.7v134.4c0,3.6,1.8,5.3,4.9,5.3h51.4c3,0,4.7-1.6,4.8-5v-11.6L134.8,165.6z"/>
</svg>
