<?xml version="1.0" encoding="utf-8"?>
<!-- Generator: Adobe Illustrator 21.0.2, SVG Export Plug-In . SVG Version: 6.00 Build 0)  -->
<!DOCTYPE svg PUBLIC "-//W3C//DTD SVG 1.1//EN" "http://www.w3.org/Graphics/SVG/1.1/DTD/svg11.dtd">
<svg version="1.1" id="Layer_1" xmlns="http://www.w3.org/2000/svg" xmlns:xlink="http://www.w3.org/1999/xlink" x="0px" y="0px"
	 viewBox="0 0 64 64" style="enable-background:new 0 0 64 64;" xml:space="preserve">
<style type="text/css">
	.st0{fill:#F07322;}
	.st1{fill:#FFFFFF;}
	.st2{fill:#F2AA1D;}
</style>
<path class="st0" d="M59.1,47.3c-1.4,0-2.3-0.1-2.9-1.3l-5.7-11.8c-0.3-0.6-0.8-1.2-1.4-1.6c4-0.9,7.8-4.6,7.8-11S52.1,9.7,45.3,9.7
	H28.2v3.6h3.7v25.9h4v-5.6h6.8c2.2,0,3,0.3,4.1,2.5l5.8,11.8c1.3,2.7,2.3,3.1,5.6,3.1H60v-3.7L59.1,47.3z M44.9,29.9h-9V13.3h9
	c4.8,0,7.8,3.1,7.8,8.2S49.7,29.9,44.9,29.9z"/>
<path class="st1" d="M31.9,43.3V46V43.3z"/>
<path class="st2" d="M35.9,43.3v4.1c0,2.3-0.9,3.4-2.9,3.6H15.5C13,51,12,49.9,12,47.4V14.6c0.1-0.6-0.3-1.2-0.9-1.3
	c-0.1,0-0.3,0-0.4,0H8.3V9.7h4.2c2.5,0,3.5,1.1,3.5,3.6V46c-0.1,0.6,0.3,1.2,0.9,1.3c0.1,0,0.3,0,0.4,0h13.4
	c0.6,0.1,1.2-0.3,1.3-0.9c0-0.1,0-0.2,0-0.3v-2.8H35.9z"/>
</svg>
