<svg xmlns="http://www.w3.org/2000/svg" id="Layer_1" width="64" height="64" data-name="Layer 1" viewBox="0 0 64 64"><path fill="#f07322" d="M59.1 47.3c-1.4 0-2.3-.1-2.9-1.3l-5.7-11.8a4 4 0 0 0-1.4-1.6c4-.9 7.8-4.6 7.8-11S52.1 9.7 45.3 9.7H28.2v3.6h3.7v25.9h4v-5.6h6.8c2.2 0 3 .3 4.1 2.5l5.8 11.8c1.3 2.7 2.3 3.1 5.6 3.1H60v-3.7zM44.9 29.9h-9V13.3h9c4.8 0 7.8 3.1 7.8 8.2s-3 8.4-7.8 8.4z"/><path fill="#fff" d="M31.9 43.3V46v-2.7z"/><path fill="#f2aa1d" d="M35.9 43.3v4.1c0 2.3-.9 3.4-2.9 3.6H15.5C13 51 12 49.9 12 47.4V14.6a1.1 1.1 0 0 0-1.3-1.3H8.3V9.7h4.2c2.5 0 3.5 1.1 3.5 3.6V46a1.1 1.1 0 0 0 1.3 1.3h13.4a1.1 1.1 0 0 0 1.3-1.2v-2.8z"/><path fill="#302740" d="M20.4 55.9h.4v-2.5h-.4V53h1.3v.4h-.4v2.5h1.1v-.5h.4v.9h-2.4zm4-2a1.2 1.2 0 1 1-1.2 1.2 1.2 1.2 0 0 1 1.2-1.2zm0 2.1a.8.8 0 1 0-.8-.8.8.8 0 0 0 .8.8zm2 .9a.5.5 0 0 0 .4-.3v-.2l-.8-2.1h-.3V54h1.1v.3h-.3l.5 1.4v.2-.2l.5-1.4h-.3V54h1v.3h-.3l-.9 2.4a.9.9 0 0 1-.8.6h-.5l.2-.3zm3.5-2h.1a.4.4 0 0 0-.5-.5 1.2 1.2 0 0 0-.7.2l-.2-.3a1.5 1.5 0 0 1 .9-.3.8.8 0 0 1 .9.9V56h.3v.4h-.5c-.2 0-.3-.1-.3-.3v-.2a.8.8 0 0 1-.8.5.7.7 0 0 1-.8-.7c.3-.8 1.3-.8 1.6-.8zm-.4 1.1a.7.7 0 0 0 .6-.8H30c-.2 0-.9 0-.9.5a.4.4 0 0 0 .4.3zm1.8-2.6H31V53h.8v2.6c0 .2 0 .3.2.3h.1v.4h-.2c-.3 0-.6-.1-.6-.7zm2.4 2.5h.4v-2.5h-.4V53h2a.8.8 0 0 1 .6.9.9.9 0 0 1-.7.9v.2l.5.8h.3v.4h-.3c-.3 0-.3-.1-.4-.2l-.5-.9a.3.3 0 0 0-.3-.2h-.4v1h.4v.4h-1.2zm1.5-1.3a.6.6 0 0 0 .6-.6.5.5 0 0 0-.3-.5h-.9v1.2zm2.7-.7a1 1 0 0 1 1 1.1v.2h-1.7a.8.8 0 0 0 .8.8 1.1 1.1 0 0 0 .7-.3l.2.3a1.4 1.4 0 0 1-.9.3 1.2 1.2 0 0 1-1.2-1.2 1.1 1.1 0 0 1 1.1-1.2zm.5 1c0-.4-.3-.6-.6-.6a.7.7 0 0 0-.7.6zm.9.6h.4v.2c0 .2.3.3.5.3s.5-.1.5-.3-.3-.3-.6-.4-.7-.3-.7-.7.5-.7.9-.7.8.1.8.5v.3h-.4v-.2c0-.1-.2-.2-.4-.2s-.4.1-.4.3.3.3.5.4.8.3.8.7-.4.7-.9.7-.9-.2-.9-.6zm3.4-1.6c.3 0 .9.1.9.5v.3h-.4v-.2c0-.2-.3-.3-.5-.3a.8.8 0 0 0-.8.8.8.8 0 0 0 .8.8 1.2 1.2 0 0 0 .7-.3l.2.3a1.4 1.4 0 0 1-.9.4 1.2 1.2 0 0 1 0-2.5zm1.6.4h-.4V54h.8v1.4c0 .3.1.6.4.6a.8.8 0 0 0 .7-.9v-.7h-.4v-.3h.8V56h.3v.3H46c-.2 0-.3-.1-.3-.3a.9.9 0 0 1-.9.6c-.5 0-.8-.3-.8-.9zm3.9-.4a1 1 0 0 1 1 1.1v.2h-1.7a.8.8 0 0 0 .8.8 1.1 1.1 0 0 0 .7-.3l.2.3a1.4 1.4 0 0 1-.9.3 1.2 1.2 0 0 1-1.3-1.2 1.1 1.1 0 0 1 1.2-1.2zm.5 1c0-.4-.3-.6-.6-.6a.7.7 0 0 0-.7.6z"/></svg>