<svg id="Layer_1" data-name="Layer 1" xmlns="http://www.w3.org/2000/svg" width="64" height="64" viewBox="0 0 64 64"><title>logo 64px</title><path d="M59.1,47.3c-1.4,0-2.3-.1-2.9-1.3L50.5,34.2a4,4,0,0,0-1.4-1.6h0c4-.9,7.8-4.6,7.8-11S52.1,9.7,45.3,9.7H28.2v3.6h3.7V39.2h4V33.6h6.8c2.2,0,3,.3,4.1,2.5l5.8,11.8c1.3,2.7,2.3,3.1,5.6,3.1h1.8V47.3ZM44.9,29.9h-9V13.3h9c4.8,0,7.8,3.1,7.8,8.2S49.7,29.9,44.9,29.9Z" fill="#f07322"/><path d="M31.9,43.3V46h0V43.3Z" fill="#fff"/><path d="M35.9,43.3v4.1c0,2.3-.9,3.4-2.9,3.6H15.5C13,51,12,49.9,12,47.4V14.6a1.1,1.1,0,0,0-1.3-1.3H8.3V9.7h4.2c2.5,0,3.5,1.1,3.5,3.6V46a1.1,1.1,0,0,0,1.3,1.3H30.7a1.1,1.1,0,0,0,1.3-1.2h0V43.3Z" fill="#f2aa1d"/><path d="M20.4,55.9h.4V53.4h-.4V53h1.3v.4h-.4v2.5h1.1v-.5h.4v.9H20.4Z" fill="#302740"/><path d="M24.4,53.9a1.2,1.2,0,1,1-1.2,1.2A1.2,1.2,0,0,1,24.4,53.9Zm0,2.1a.8.8,0,1,0-.8-.8A.8.8,0,0,0,24.4,56Z" fill="#302740"/><path d="M26.4,56.9a.5.5,0,0,0,.4-.3v-.2l-.8-2.1h-.3v-.3h1.1v.3h-.3l.5,1.4v.2h0v-.2l.5-1.4h-.3v-.3h1v.3h-.3l-.9,2.4a.9.9,0,0,1-.8.6h-.5l.2-.3Z" fill="#302740"/><path d="M29.9,54.9h.1a.4.4,0,0,0-.5-.5,1.2,1.2,0,0,0-.7.2l-.2-.3a1.5,1.5,0,0,1,.9-.3.8.8,0,0,1,.9.9v1.1h.3v.4h-.5c-.2,0-.3-.1-.3-.3h0v-.2h0a.8.8,0,0,1-.8.5.7.7,0,0,1-.8-.7C28.6,54.9,29.6,54.9,29.9,54.9ZM29.5,56a.7.7,0,0,0,.6-.8H30c-.2,0-.9,0-.9.5A.4.4,0,0,0,29.5,56Z" fill="#302740"/><path d="M31.3,53.4H31V53h.8v2.6c0,.2,0,.3.2.3h.1v.4h-.2c-.3,0-.6-.1-.6-.7Z" fill="#302740"/><path d="M33.7,55.9h.4V53.4h-.4V53h2a.8.8,0,0,1,.6.9.9.9,0,0,1-.7.9h0V55l.5.8h.3v.4h-.3c-.3,0-.3-.1-.4-.2l-.5-.9a.3.3,0,0,0-.3-.2h-.4v1h.4v.4H33.7Zm1.5-1.3a.6.6,0,0,0,.6-.6.5.5,0,0,0-.3-.5h-.9v1.2Z" fill="#302740"/><path d="M37.9,53.9a1,1,0,0,1,1,1.1v.2H37.2a.8.8,0,0,0,.8.8,1.1,1.1,0,0,0,.7-.3l.2.3a1.4,1.4,0,0,1-.9.3,1.2,1.2,0,0,1-1.2-1.2A1.1,1.1,0,0,1,37.9,53.9Zm.5,1c0-.4-.3-.6-.6-.6a.7.7,0,0,0-.7.6Z" fill="#302740"/><path d="M39.3,55.5h.4v.2c0,.2.3.3.5.3s.5-.1.5-.3-.3-.3-.6-.4-.7-.3-.7-.7.5-.7.9-.7.8.1.8.5v.3h-.4v-.2c0-.1-.2-.2-.4-.2s-.4.1-.4.3.3.3.5.4.8.3.8.7-.4.7-.9.7-.9-.2-.9-.6Z" fill="#302740"/><path d="M42.7,53.9c.3,0,.9.1.9.5v.3h-.4v-.2c0-.2-.3-.3-.5-.3a.8.8,0,0,0-.8.8.8.8,0,0,0,.8.8,1.2,1.2,0,0,0,.7-.3l.2.3a1.4,1.4,0,0,1-.9.4,1.2,1.2,0,0,1,0-2.5Z" fill="#302740"/><path d="M44.3,54.3h-.4v-.3h.8v1.4c0,.3.1.6.4.6a.8.8,0,0,0,.7-.9v-.7h-.4v-.3h.8v1.9h.3v.3h-.5c-.2,0-.3-.1-.3-.3h0a.9.9,0,0,1-.9.6c-.5,0-.8-.3-.8-.9Z" fill="#302740"/><path d="M48.2,53.9a1,1,0,0,1,1,1.1v.2H47.5a.8.8,0,0,0,.8.8,1.1,1.1,0,0,0,.7-.3l.2.3a1.4,1.4,0,0,1-.9.3A1.2,1.2,0,0,1,47,55.1,1.1,1.1,0,0,1,48.2,53.9Zm.5,1c0-.4-.3-.6-.6-.6a.7.7,0,0,0-.7.6Z" fill="#302740"/></svg>