<svg xmlns="http://www.w3.org/2000/svg" id="Layer_1" width="32" height="32" data-name="Layer 1" viewBox="0 0 32 32"><path fill="#f07322" d="M28.6 22.4c-.7 0-1.2-.1-1.4-.6l-2.9-5.4a1.9 1.9 0 0 0-.7-.8 4.9 4.9 0 0 0 3.9-5.1c0-3.3-2.4-5.4-5.8-5.4h-8.6v1.7H15v11.9h2v-2.6h3.4c1.1 0 1.5.1 2 1.1l2.9 5.4c.7 1.2 1.2 1.4 2.8 1.4h.9v-1.6zm-7.2-8H17V6.8h4.5a3.5 3.5 0 0 1 3.9 3.8 3.6 3.6 0 0 1-3.9 3.8z"/><path fill="#fff" d="M15 20.6v1.3-1.3z"/><path fill="#f2aa1d" d="M17 20.6v1.9c0 1.1-.4 1.6-1.5 1.6H6.7c-1.2 0-1.8-.5-1.8-1.6V7.4c0-.4-.2-.6-.6-.6H3.1V5.2h2.1c1.3 0 1.8.5 1.8 1.6v15c0 .4.2.6.6.6h6.7c.4 0 .6-.2.6-.6v-1.2z"/><path fill="#302740" d="M9.2 26.4h.2v-1.2h-.2V25h.6v.2h-.2v1.2h.6v-.2h.2v.4H9.2zm2-1a.6.6 0 1 1-.6.6.6.6 0 0 1 .6-.6zm0 1a.4.4 0 1 0 0-.8.4.4 0 1 0 0 .8zm1 .4h.3l-.4-.9H12v-.2h.5v.2h-.2l.3.6h.1l.3-.6h-.1v-.2h.5v.2h-.1l-.5 1.1a.4.4 0 0 1-.4.3h-.2v-.2zm1.8-.9c0-.2-.1-.2-.2-.2.3 0 .5.1.5.4v.5h.2v.2h-.4a.4.4 0 0 1-.4.2.3.3 0 0 1-.4-.3c0-.8.5-.8.7-.8zm-.2.5a.3.3 0 0 0 .3-.4H14c-.1 0-.5 0-.5.2a.2.2 0 0 0 .2.2zm.9-1.2h-.2V25h.4v1.2c0 .1 0 .2.1.2h.1v.2H15c-.2 0-.3-.1-.3-.3zm1.1 1.2h.2v-1.2h-.2V25h1a.4.4 0 0 1 .3.4.4.4 0 0 1-.3.4h.1l.2.4h.2v.2h-.4l-.2-.4h-.4v.4h.2v.2h-.6zm.8-.6a.3.3 0 0 0 .3-.3.2.2 0 0 0-.2-.2h-.5v.5zm1.4-.4a.5.5 0 0 1 .5.5h-.9a.4.4 0 0 0 .4.4h.3v.2H18a.6.6 0 0 1-.6-.6.5.5 0 0 1 .6-.5zm.3.5a.3.3 0 0 0-.3-.3.3.3 0 0 0-.3.3zm.4.3h.7c0-.1-.1-.1-.3-.2s-.4-.1-.4-.3.2-.3.4-.3.4.1.4.2h-.6c0 .1.1.1.3.2s.4.1.4.3-.2.3-.5.3-.5-.1-.5-.3z"/><path fill="#302740" d="M20.4 25.4c.2 0 .5.1.5.2h-.4a.4.4 0 0 0-.4.4.4.4 0 0 0 .4.4h.4v.2l-.5.2a.6.6 0 1 1 0-1.1zm.8.2H21v-.2h.4v.6c0 .1 0 .3.2.3a.4.4 0 0 0 .4-.3v-.3h-.2v-.2h.4v.9h.2v.2H22a.5.5 0 0 1-.4.3c-.2 0-.4-.1-.4-.4z"/><path fill="#302740" d="M23.1 25.4a.5.5 0 0 1 .5.5h-.9a.4.4 0 0 0 .4.4h.3v.2h-.5a.6.6 0 0 1-.6-.6.5.5 0 0 1 .8-.5zm.3.5a.3.3 0 0 0-.3-.3.3.3 0 0 0-.3.3z"/></svg>