<svg id="Layer_1" data-name="Layer 1" xmlns="http://www.w3.org/2000/svg" width="32" height="32" viewBox="0 0 32 32"><title>logo 32px</title><path d="M28.6,22.4c-.7,0-1.2-.1-1.4-.6l-2.9-5.4a1.9,1.9,0,0,0-.7-.8h0a4.9,4.9,0,0,0,3.9-5.1c0-3.3-2.4-5.4-5.8-5.4H13.1V6.8H15V18.7h2V16.1h3.4c1.1,0,1.5.1,2,1.1l2.9,5.4c.7,1.2,1.2,1.4,2.8,1.4H29V22.4Zm-7.2-8H17V6.8h4.5a3.5,3.5,0,0,1,3.9,3.8A3.6,3.6,0,0,1,21.5,14.4Z" fill="#f07322"/><path d="M15,20.6v1.3h0V20.6Z" fill="#fff"/><path d="M17,20.6v1.9c0,1.1-.4,1.6-1.5,1.6H6.7c-1.2,0-1.8-.5-1.8-1.6V7.4c0-.4-.2-.6-.6-.6H3.1V5.2H5.2C6.5,5.2,7,5.7,7,6.8v15c0,.4.2.6.6.6h6.7c.4,0,.6-.2.6-.6h0V20.6Z" fill="#f2aa1d"/><path d="M9.2,26.4h.2V25.2H9.2V25h.6v.2H9.6v1.2h.6v-.2h.2v.4H9.2Z" fill="#302740"/><path d="M11.2,25.4a.6.6,0,1,1-.6.6A.6.6,0,0,1,11.2,25.4Zm0,1a.4.4,0,1,0,0-.8.4.4,0,1,0,0,.8Z" fill="#302740"/><path d="M12.2,26.8h.3l-.4-.9h-.1v-.2h.5v.2h-.2l.3.6h.1l.3-.6h-.1v-.2h.5v.2h-.1l-.5,1.1a.4.4,0,0,1-.4.3h-.2v-.2Z" fill="#302740"/><path d="M14,25.9H14c0-.2-.1-.2-.2-.2h0c.3,0,.5.1.5.4v.5h.2v.2h-.4a.4.4,0,0,1-.4.2.3.3,0,0,1-.4-.3C13.3,25.9,13.8,25.9,14,25.9Zm-.2.5a.3.3,0,0,0,.3-.4H14c-.1,0-.5,0-.5.2A.2.2,0,0,0,13.7,26.4Z" fill="#302740"/><path d="M14.7,25.2h-.2V25h.4v1.2c0,.1,0,.2.1.2h.1v.2H15c-.2,0-.3-.1-.3-.3Z" fill="#302740"/><path d="M15.8,26.4H16V25.2h-.2V25h1a.4.4,0,0,1,.3.4.4.4,0,0,1-.3.4h.1l.2.4h.2v.2h-.4l-.2-.4h-.4v.4h.2v.2h-.6Zm.8-.6a.3.3,0,0,0,.3-.3.2.2,0,0,0-.2-.2h-.5v.5Z" fill="#302740"/><path d="M18,25.4a.5.5,0,0,1,.5.5h-.9a.4.4,0,0,0,.4.4h.3v.2H18a.6.6,0,0,1-.6-.6A.5.5,0,0,1,18,25.4Zm.3.5a.3.3,0,0,0-.3-.3.3.3,0,0,0-.3.3Z" fill="#302740"/><path d="M18.7,26.2h.7c0-.1-.1-.1-.3-.2s-.4-.1-.4-.3.2-.3.4-.3.4.1.4.2h-.6c0,.1.1.1.3.2s.4.1.4.3-.2.3-.5.3-.5-.1-.5-.3Z" fill="#302740"/><path d="M20.4,25.4c.2,0,.5.1.5.2h-.4a.4.4,0,0,0-.4.4.4.4,0,0,0,.4.4h.4v.2l-.5.2a.6.6,0,1,1,0-1.1Z" fill="#302740"/><path d="M21.2,25.6H21v-.2h.4v.6c0,.1,0,.3.2.3A.4.4,0,0,0,22,26v-.3h-.2v-.2h.4v.9h.2v.2H22a.5.5,0,0,1-.4.3c-.2,0-.4-.1-.4-.4Z" fill="#302740"/><path d="M23.1,25.4a.5.5,0,0,1,.5.5h-.9a.4.4,0,0,0,.4.4h.3v.2h-.5a.6.6,0,0,1-.6-.6A.5.5,0,0,1,23.1,25.4Zm.3.5a.3.3,0,0,0-.3-.3.3.3,0,0,0-.3.3Z" fill="#302740"/></svg>