<?xml version="1.0" encoding="utf-8"?>
<!-- Generator: Adobe Illustrator 21.0.2, SVG Export Plug-In . SVG Version: 6.00 Build 0)  -->
<!DOCTYPE svg PUBLIC "-//W3C//DTD SVG 1.1//EN" "http://www.w3.org/Graphics/SVG/1.1/DTD/svg11.dtd">
<svg version="1.1" id="Layer_1" xmlns="http://www.w3.org/2000/svg" xmlns:xlink="http://www.w3.org/1999/xlink" x="0px" y="0px"
	 viewBox="0 0 16 16" style="enable-background:new 0 0 16 16;" xml:space="preserve">
<style type="text/css">
	.st0{fill:#F07322;}
	.st1{fill:#FFFFFF;}
	.st2{fill:#F2AA1D;}
</style>
<path class="st0" d="M14.7,11.9c-0.4,0-0.6,0-0.8-0.4l-1.5-3C12.3,8.3,12.2,8.1,12,8c1.3-0.3,2.2-1.6,2.1-2.9c0.1-1.6-1.1-3-2.7-3.1
	c-0.1,0-0.3,0-0.4,0H6.4v1h1v6.8h1.1V8.3h1.8c0.5-0.1,0.9,0.2,1.1,0.6L13,12c0.4,0.7,0.6,0.8,1.5,0.8H15v-1L14.7,11.9z M10.9,7.3
	H8.5V3h2.4c1.1-0.1,2,0.8,2.1,1.9C13,5,13,5,13,5.1c0.1,1.1-0.7,2.1-1.8,2.2C11.1,7.3,11,7.3,10.9,7.3z"/>
<path class="st1" d="M7.4,10.8v0.7V10.8z"/>
<path class="st2" d="M8.5,10.8v1.1c0,0.6-0.2,0.9-0.8,0.9H3c-0.7,0-0.9-0.3-0.9-0.9V3.3C2.1,3.1,2,3,1.8,3c0,0-0.1,0-0.1,0H1.1V2
	h1.1c0.7,0,0.9,0.3,0.9,0.9v8.6c0,0.2,0.1,0.3,0.3,0.3c0,0,0,0,0,0h3.7c0.2,0,0.3-0.1,0.3-0.3l0,0v-0.7H8.5z"/>
</svg>
