<svg id="Layer_1" data-name="Layer 1" xmlns="http://www.w3.org/2000/svg" width="16" height="16" viewBox="0 0 16 16"><title>Logo 16px</title><path d="M14.7,11.9c-.4,0-.6,0-.8-.4L12.4,8.5A1.1,1.1,0,0,0,12,8h0a2.8,2.8,0,0,0,2.1-2.9A2.9,2.9,0,0,0,11,2H6.4V3h1V9.8H8.5V8.3h1.8a1,1,0,0,1,1.1.6L13,12c.4.7.6.8,1.5.8h.5v-1ZM10.9,7.3H8.5V3h2.4A2,2,0,0,1,13,5.1,2,2,0,0,1,10.9,7.3Z" fill="#f07322"/><path d="M7.4,10.8v.7h0v-.7Z" fill="#fff"/><path d="M8.5,10.8v1.1c0,.6-.2.9-.8.9H3c-.7,0-.9-.3-.9-.9V3.3A.3.3,0,0,0,1.7,3H1.1V2H2.2c.7,0,.9.3.9.9v8.6a.3.3,0,0,0,.3.3H7.1a.3.3,0,0,0,.3-.3h0v-.7Z" fill="#f2aa1d"/><path d="M4.3,14.2h.1v-.7h.1v.7H5v.2H4.3Z" fill="#302740"/><path d="M5.4,13.6a.3.3,0,1,1-.3.3A.3.3,0,0,1,5.4,13.6Zm0,.5a.2.2,0,0,0,0-.4.2.2,0,0,0,0,.4Z" fill="#302740"/><path d="M5.9,14.4h.1l-.2-.5H6v.4h0v-.4h.1l-.2.6-.2.2h0Z" fill="#302740"/><path d="M6.9,13.9H6.8a.2.2,0,0,1,.2.2v.3H6.7a.2.2,0,0,1-.2-.2C6.5,13.9,6.8,13.9,6.9,13.9Zm-.1.3a.2.2,0,0,0,.2-.2h0c-.1,0-.2,0-.2.1Z" fill="#302740"/><path d="M7.3,13.5h.1v.7h0c-.1,0-.2,0-.2-.2Z" fill="#302740"/><path d="M7.9,14.2H8v-.7h.4a.2.2,0,0,1,.1.2.2.2,0,0,1-.2.2h0v.2H8.4V14H8.1v.3H7.9Zm.4-.4a.1.1,0,0,0,.2-.2H8.1v.3Z" fill="#302740"/><path d="M9,13.6a.3.3,0,0,1,.3.3H8.8a.2.2,0,0,0,.2.2H9a.3.3,0,0,1-.3-.3A.3.3,0,0,1,9,13.6Zm.1.3a.2.2,0,0,0-.1-.2l-.2.2Z" fill="#302740"/><path d="M9.4,14.1h.2c-.1,0-.2-.1-.2-.2s.1-.2.2-.2h0c.1,0,.2.1.2.2s-.1.2-.2.2H9.4Z" fill="#302740"/><path d="M10.3,13.6c.1,0,.2,0,.2.1h-.2a.2.2,0,0,0-.2.2.2.2,0,0,0,.2.2h0a.3.3,0,1,1,0-.6Z" fill="#302740"/><path d="M10.7,13.7h.1V14c0,.1,0,.2.1.2a.2.2,0,0,0,.2-.2v-.2h.1v.5h-.3c-.1,0-.2-.1-.2-.2Z" fill="#302740"/><path d="M11.8,13.6a.3.3,0,0,1,.3.3h-.5a.2.2,0,0,0,.2.2h0a.3.3,0,0,1-.3-.3A.3.3,0,0,1,11.8,13.6Zm.1.3a.1.1,0,0,0-.1-.2l-.2.2Z" fill="#302740"/></svg>